<mxfile host="app.diagrams.net" modified="2024-04-06T10:04:27.155Z" agent="Mozilla/5.0 (Windows NT 10.0; Win64; x64) AppleWebKit/537.36 (KHTML, like Gecko) Chrome/123.0.0.0 Safari/537.36" etag="6CAJKsSdh2L-P3MEIw6I" version="24.2.1" type="device">
  <diagram name="Страница — 1" id="MQJQtwDWRdJCtdYc5LdT">
    <mxGraphModel dx="1313" dy="706" grid="1" gridSize="10" guides="0" tooltips="1" connect="1" arrows="1" fold="1" page="1" pageScale="1" pageWidth="1200" pageHeight="1700" math="0" shadow="0">
      <root>
        <mxCell id="0" />
        <mxCell id="1" parent="0" />
        <mxCell id="4GVUA1R4Ira9zIJg3EY--285" value="" style="shape=partialRectangle;connectable=0;fillColor=none;top=0;left=0;bottom=0;right=0;align=left;spacingLeft=6;overflow=hidden;whiteSpace=wrap;html=1;" vertex="1" parent="1">
          <mxGeometry x="420" y="2450" width="150" height="30" as="geometry">
            <mxRectangle width="150" height="30" as="alternateBounds" />
          </mxGeometry>
        </mxCell>
        <mxCell id="4GVUA1R4Ira9zIJg3EY--286" value="" style="shape=partialRectangle;connectable=0;fillColor=none;top=0;left=0;bottom=0;right=0;align=left;spacingLeft=6;overflow=hidden;whiteSpace=wrap;html=1;" vertex="1" parent="1">
          <mxGeometry x="480" y="590" width="150" height="30" as="geometry">
            <mxRectangle width="150" height="30" as="alternateBounds" />
          </mxGeometry>
        </mxCell>
        <mxCell id="4GVUA1R4Ira9zIJg3EY--287" value="UserService" style="swimlane;whiteSpace=wrap;html=1;startSize=23;" vertex="1" parent="1">
          <mxGeometry x="160" y="630" width="200" height="250" as="geometry" />
        </mxCell>
        <mxCell id="4GVUA1R4Ira9zIJg3EY--288" value="addUser(User user) Valid&lt;div&gt;&lt;br&gt;&lt;/div&gt;" style="text;html=1;align=center;verticalAlign=middle;whiteSpace=wrap;rounded=0;" vertex="1" parent="4GVUA1R4Ira9zIJg3EY--287">
          <mxGeometry y="60" width="160" height="30" as="geometry" />
        </mxCell>
        <mxCell id="4GVUA1R4Ira9zIJg3EY--289" value="deleteUser(long id)&amp;nbsp;" style="text;html=1;align=center;verticalAlign=middle;whiteSpace=wrap;rounded=0;" vertex="1" parent="4GVUA1R4Ira9zIJg3EY--287">
          <mxGeometry x="-10" y="80" width="170" height="30" as="geometry" />
        </mxCell>
        <mxCell id="4GVUA1R4Ira9zIJg3EY--290" value="updateUser (User user)" style="text;html=1;align=center;verticalAlign=middle;whiteSpace=wrap;rounded=0;" vertex="1" parent="4GVUA1R4Ira9zIJg3EY--287">
          <mxGeometry x="10" y="120" width="130" height="30" as="geometry" />
        </mxCell>
        <mxCell id="4GVUA1R4Ira9zIJg3EY--291" value="findUserBy(long id) Valid" style="text;html=1;align=center;verticalAlign=middle;whiteSpace=wrap;rounded=0;" vertex="1" parent="4GVUA1R4Ira9zIJg3EY--287">
          <mxGeometry x="10" y="150" width="150" height="30" as="geometry" />
        </mxCell>
        <mxCell id="4GVUA1R4Ira9zIJg3EY--292" value="getAllUsersSortName" style="text;html=1;align=center;verticalAlign=middle;whiteSpace=wrap;rounded=0;" vertex="1" parent="4GVUA1R4Ira9zIJg3EY--287">
          <mxGeometry x="40" y="190" width="70" height="30" as="geometry" />
        </mxCell>
        <mxCell id="4GVUA1R4Ira9zIJg3EY--293" value="&lt;br&gt;&lt;span style=&quot;font-family: Helvetica; font-size: 12px; font-style: normal; font-variant-ligatures: normal; font-variant-caps: normal; font-weight: 700; letter-spacing: normal; orphans: 2; text-align: center; text-indent: 0px; text-transform: none; widows: 2; word-spacing: 0px; -webkit-text-stroke-width: 0px; white-space: normal; background-color: rgb(251, 251, 251); text-decoration-thickness: initial; text-decoration-style: initial; text-decoration-color: initial; float: none; display: inline !important;&quot;&gt;UserRepository&amp;nbsp;&lt;/span&gt;&lt;span style=&quot;font-weight: 700;&quot;&gt;userRepository&lt;/span&gt;" style="text;html=1;align=center;verticalAlign=middle;whiteSpace=wrap;rounded=0;fontColor=#0a46bd;" vertex="1" parent="4GVUA1R4Ira9zIJg3EY--287">
          <mxGeometry x="20" y="22" width="160" height="30" as="geometry" />
        </mxCell>
        <mxCell id="4GVUA1R4Ira9zIJg3EY--294" value="Admin&lt;span style=&quot;background-color: initial;&quot;&gt;Servoce&lt;/span&gt;" style="swimlane;whiteSpace=wrap;html=1;" vertex="1" parent="1">
          <mxGeometry x="410" y="630" width="230" height="250" as="geometry" />
        </mxCell>
        <mxCell id="4GVUA1R4Ira9zIJg3EY--295" value="addAdmin(Admin admin) Valid" style="text;html=1;align=center;verticalAlign=middle;whiteSpace=wrap;rounded=0;" vertex="1" parent="4GVUA1R4Ira9zIJg3EY--294">
          <mxGeometry x="10" y="60" width="140" height="30" as="geometry" />
        </mxCell>
        <mxCell id="4GVUA1R4Ira9zIJg3EY--296" value="deleteAdmin(long id)" style="text;html=1;align=center;verticalAlign=middle;whiteSpace=wrap;rounded=0;" vertex="1" parent="4GVUA1R4Ira9zIJg3EY--294">
          <mxGeometry x="10" y="90" width="120" height="30" as="geometry" />
        </mxCell>
        <mxCell id="4GVUA1R4Ira9zIJg3EY--297" value="updateAdmin(Admin admin)" style="text;html=1;align=center;verticalAlign=middle;whiteSpace=wrap;rounded=0;" vertex="1" parent="4GVUA1R4Ira9zIJg3EY--294">
          <mxGeometry y="130" width="170" height="30" as="geometry" />
        </mxCell>
        <mxCell id="4GVUA1R4Ira9zIJg3EY--298" value="findAdminById(long i&lt;span style=&quot;background-color: initial;&quot;&gt;d&lt;/span&gt;&lt;span style=&quot;background-color: initial;&quot;&gt;) Valid&lt;/span&gt;" style="text;html=1;align=center;verticalAlign=middle;whiteSpace=wrap;rounded=0;" vertex="1" parent="4GVUA1R4Ira9zIJg3EY--294">
          <mxGeometry x="10" y="160" width="130" height="30" as="geometry" />
        </mxCell>
        <mxCell id="4GVUA1R4Ira9zIJg3EY--299" value="getAllAdminSortId" style="text;html=1;align=center;verticalAlign=middle;whiteSpace=wrap;rounded=0;" vertex="1" parent="4GVUA1R4Ira9zIJg3EY--294">
          <mxGeometry x="30" y="190" width="60" height="30" as="geometry" />
        </mxCell>
        <mxCell id="4GVUA1R4Ira9zIJg3EY--300" value="&lt;span style=&quot;font-weight: 700;&quot;&gt;AdminRepository&amp;nbsp;&lt;/span&gt;&lt;span style=&quot;font-weight: 700;&quot;&gt;AdminRepository&lt;/span&gt;" style="text;html=1;align=center;verticalAlign=middle;whiteSpace=wrap;rounded=0;fontColor=#0000FF;" vertex="1" parent="4GVUA1R4Ira9zIJg3EY--294">
          <mxGeometry x="70" y="20" width="60" height="30" as="geometry" />
        </mxCell>
        <mxCell id="4GVUA1R4Ira9zIJg3EY--301" value="SuperAdminService" style="swimlane;whiteSpace=wrap;html=1;" vertex="1" parent="1">
          <mxGeometry x="680" y="630" width="320" height="260" as="geometry" />
        </mxCell>
        <mxCell id="4GVUA1R4Ira9zIJg3EY--302" style="edgeStyle=orthogonalEdgeStyle;rounded=0;orthogonalLoop=1;jettySize=auto;html=1;exitX=1;exitY=0;exitDx=0;exitDy=0;" edge="1" parent="4GVUA1R4Ira9zIJg3EY--301" source="4GVUA1R4Ira9zIJg3EY--303">
          <mxGeometry relative="1" as="geometry">
            <mxPoint x="210" y="39.99999999999977" as="targetPoint" />
          </mxGeometry>
        </mxCell>
        <mxCell id="4GVUA1R4Ira9zIJg3EY--303" value="addAdmin(SuperAdmin) Valid" style="text;html=1;align=center;verticalAlign=middle;whiteSpace=wrap;rounded=0;" vertex="1" parent="4GVUA1R4Ira9zIJg3EY--301">
          <mxGeometry x="-2.5" y="70" width="200" height="40" as="geometry" />
        </mxCell>
        <mxCell id="4GVUA1R4Ira9zIJg3EY--304" value="deleteAdmin(long id)" style="text;html=1;align=center;verticalAlign=middle;whiteSpace=wrap;rounded=0;" vertex="1" parent="4GVUA1R4Ira9zIJg3EY--301">
          <mxGeometry x="10" y="110" width="140" height="40" as="geometry" />
        </mxCell>
        <mxCell id="4GVUA1R4Ira9zIJg3EY--305" value="findAdminById(long i&lt;span style=&quot;background-color: initial;&quot;&gt;d&lt;/span&gt;&lt;span style=&quot;background-color: initial;&quot;&gt;) Valid&lt;/span&gt;" style="text;html=1;align=center;verticalAlign=middle;whiteSpace=wrap;rounded=0;" vertex="1" parent="4GVUA1R4Ira9zIJg3EY--301">
          <mxGeometry y="170" width="180" height="40" as="geometry" />
        </mxCell>
        <mxCell id="4GVUA1R4Ira9zIJg3EY--306" value="updateAdmin(SuperAdmin admin)" style="text;html=1;align=center;verticalAlign=middle;whiteSpace=wrap;rounded=0;" vertex="1" parent="4GVUA1R4Ira9zIJg3EY--301">
          <mxGeometry x="20" y="140" width="185" height="30" as="geometry" />
        </mxCell>
        <mxCell id="4GVUA1R4Ira9zIJg3EY--307" value="getAllAdminSortId" style="text;html=1;align=center;verticalAlign=middle;whiteSpace=wrap;rounded=0;" vertex="1" parent="4GVUA1R4Ira9zIJg3EY--301">
          <mxGeometry x="40" y="210" width="60" height="30" as="geometry" />
        </mxCell>
        <mxCell id="4GVUA1R4Ira9zIJg3EY--308" value="&lt;span style=&quot;font-weight: 700;&quot;&gt;SuperAdminRepository&amp;nbsp;&lt;/span&gt;&lt;span style=&quot;font-weight: 700;&quot;&gt;SuperAdminRepository&lt;/span&gt;" style="text;html=1;align=center;verticalAlign=middle;whiteSpace=wrap;rounded=0;fontColor=#2a47bb;" vertex="1" parent="4GVUA1R4Ira9zIJg3EY--301">
          <mxGeometry x="110" y="40" width="60" height="30" as="geometry" />
        </mxCell>
        <mxCell id="4GVUA1R4Ira9zIJg3EY--309" value="" style="shape=partialRectangle;connectable=0;fillColor=none;top=0;left=0;bottom=0;right=0;align=left;spacingLeft=6;overflow=hidden;whiteSpace=wrap;html=1;" vertex="1" parent="1">
          <mxGeometry x="470" y="1320" width="150" height="30" as="geometry">
            <mxRectangle width="150" height="30" as="alternateBounds" />
          </mxGeometry>
        </mxCell>
        <mxCell id="4GVUA1R4Ira9zIJg3EY--310" value="UserRepository" style="swimlane;whiteSpace=wrap;html=1;" vertex="1" parent="1">
          <mxGeometry x="160" y="990" width="200" height="200" as="geometry" />
        </mxCell>
        <mxCell id="4GVUA1R4Ira9zIJg3EY--311" value="addUser(User user)" style="text;html=1;align=center;verticalAlign=middle;whiteSpace=wrap;rounded=0;" vertex="1" parent="4GVUA1R4Ira9zIJg3EY--310">
          <mxGeometry x="10" y="40" width="110" height="30" as="geometry" />
        </mxCell>
        <mxCell id="4GVUA1R4Ira9zIJg3EY--312" value="deleteUser(long id)" style="text;html=1;align=center;verticalAlign=middle;whiteSpace=wrap;rounded=0;" vertex="1" parent="4GVUA1R4Ira9zIJg3EY--310">
          <mxGeometry x="10" y="70" width="120" height="30" as="geometry" />
        </mxCell>
        <mxCell id="4GVUA1R4Ira9zIJg3EY--313" value="updateUser (User user)" style="text;html=1;align=center;verticalAlign=middle;whiteSpace=wrap;rounded=0;" vertex="1" parent="4GVUA1R4Ira9zIJg3EY--310">
          <mxGeometry x="10" y="100" width="130" height="30" as="geometry" />
        </mxCell>
        <mxCell id="4GVUA1R4Ira9zIJg3EY--314" value="findUserBy(long id)" style="text;html=1;align=center;verticalAlign=middle;whiteSpace=wrap;rounded=0;" vertex="1" parent="4GVUA1R4Ira9zIJg3EY--310">
          <mxGeometry x="10" y="130" width="110" height="30" as="geometry" />
        </mxCell>
        <mxCell id="4GVUA1R4Ira9zIJg3EY--315" value="AdminRepository" style="swimlane;whiteSpace=wrap;html=1;" vertex="1" parent="1">
          <mxGeometry x="420" y="990" width="200" height="200" as="geometry" />
        </mxCell>
        <mxCell id="4GVUA1R4Ira9zIJg3EY--316" value="addAdmin(Admin admin)" style="text;html=1;align=center;verticalAlign=middle;whiteSpace=wrap;rounded=0;" vertex="1" parent="4GVUA1R4Ira9zIJg3EY--315">
          <mxGeometry x="20" y="40" width="140" height="30" as="geometry" />
        </mxCell>
        <mxCell id="4GVUA1R4Ira9zIJg3EY--317" value="deleteAdmin(long id)" style="text;html=1;align=center;verticalAlign=middle;whiteSpace=wrap;rounded=0;" vertex="1" parent="4GVUA1R4Ira9zIJg3EY--315">
          <mxGeometry x="20" y="70" width="120" height="30" as="geometry" />
        </mxCell>
        <mxCell id="4GVUA1R4Ira9zIJg3EY--318" value="updateAdmin(Admin admin)" style="text;html=1;align=center;verticalAlign=middle;whiteSpace=wrap;rounded=0;" vertex="1" parent="4GVUA1R4Ira9zIJg3EY--315">
          <mxGeometry x="20" y="110" width="170" height="30" as="geometry" />
        </mxCell>
        <mxCell id="4GVUA1R4Ira9zIJg3EY--319" value="findAdminById(long i&lt;span style=&quot;background-color: initial;&quot;&gt;d&lt;/span&gt;&lt;span style=&quot;background-color: initial;&quot;&gt;)&lt;/span&gt;" style="text;html=1;align=center;verticalAlign=middle;whiteSpace=wrap;rounded=0;" vertex="1" parent="4GVUA1R4Ira9zIJg3EY--315">
          <mxGeometry x="20" y="140" width="130" height="30" as="geometry" />
        </mxCell>
        <mxCell id="4GVUA1R4Ira9zIJg3EY--320" value="" style="endArrow=classic;html=1;rounded=0;" edge="1" parent="4GVUA1R4Ira9zIJg3EY--315">
          <mxGeometry width="50" height="50" relative="1" as="geometry">
            <mxPoint x="100" y="210" as="sourcePoint" />
            <mxPoint x="100" y="330" as="targetPoint" />
          </mxGeometry>
        </mxCell>
        <mxCell id="4GVUA1R4Ira9zIJg3EY--321" value="SuperAdminRepository" style="swimlane;whiteSpace=wrap;html=1;" vertex="1" parent="1">
          <mxGeometry x="680" y="990" width="240" height="200" as="geometry" />
        </mxCell>
        <mxCell id="4GVUA1R4Ira9zIJg3EY--322" style="edgeStyle=orthogonalEdgeStyle;rounded=0;orthogonalLoop=1;jettySize=auto;html=1;exitX=1;exitY=0;exitDx=0;exitDy=0;" edge="1" parent="4GVUA1R4Ira9zIJg3EY--321" source="4GVUA1R4Ira9zIJg3EY--323">
          <mxGeometry relative="1" as="geometry">
            <mxPoint x="210" y="39.99999999999977" as="targetPoint" />
          </mxGeometry>
        </mxCell>
        <mxCell id="4GVUA1R4Ira9zIJg3EY--323" value="addAdmin(SuperAdmin)" style="text;html=1;align=center;verticalAlign=middle;whiteSpace=wrap;rounded=0;" vertex="1" parent="4GVUA1R4Ira9zIJg3EY--321">
          <mxGeometry x="-2.5" y="50" width="200" height="40" as="geometry" />
        </mxCell>
        <mxCell id="4GVUA1R4Ira9zIJg3EY--324" value="deleteAdmin(long id)" style="text;html=1;align=center;verticalAlign=middle;whiteSpace=wrap;rounded=0;" vertex="1" parent="4GVUA1R4Ira9zIJg3EY--321">
          <mxGeometry x="20" y="80" width="140" height="40" as="geometry" />
        </mxCell>
        <mxCell id="4GVUA1R4Ira9zIJg3EY--325" value="findAdminById(long i&lt;span style=&quot;background-color: initial;&quot;&gt;d&lt;/span&gt;&lt;span style=&quot;background-color: initial;&quot;&gt;)&lt;/span&gt;" style="text;html=1;align=center;verticalAlign=middle;whiteSpace=wrap;rounded=0;" vertex="1" parent="4GVUA1R4Ira9zIJg3EY--321">
          <mxGeometry y="150" width="180" height="40" as="geometry" />
        </mxCell>
        <mxCell id="4GVUA1R4Ira9zIJg3EY--326" value="updateAdmin(SuperAdmin admin)" style="text;html=1;align=center;verticalAlign=middle;whiteSpace=wrap;rounded=0;" vertex="1" parent="4GVUA1R4Ira9zIJg3EY--321">
          <mxGeometry x="27.5" y="120" width="185" height="30" as="geometry" />
        </mxCell>
        <mxCell id="4GVUA1R4Ira9zIJg3EY--327" value="" style="endArrow=classic;html=1;rounded=0;entryX=0.5;entryY=0;entryDx=0;entryDy=0;" edge="1" parent="4GVUA1R4Ira9zIJg3EY--321" target="4GVUA1R4Ira9zIJg3EY--330">
          <mxGeometry width="50" height="50" relative="1" as="geometry">
            <mxPoint x="120" y="200" as="sourcePoint" />
            <mxPoint x="170" y="150" as="targetPoint" />
          </mxGeometry>
        </mxCell>
        <mxCell id="4GVUA1R4Ira9zIJg3EY--328" value="" style="endArrow=classic;html=1;rounded=0;" edge="1" parent="1">
          <mxGeometry width="50" height="50" relative="1" as="geometry">
            <mxPoint x="250" y="1190" as="sourcePoint" />
            <mxPoint x="250" y="1320" as="targetPoint" />
          </mxGeometry>
        </mxCell>
        <mxCell id="4GVUA1R4Ira9zIJg3EY--329" value="AdminRepositoryImpl" style="swimlane;whiteSpace=wrap;html=1;" vertex="1" parent="1">
          <mxGeometry x="410" y="1320" width="200" height="200" as="geometry" />
        </mxCell>
        <mxCell id="4GVUA1R4Ira9zIJg3EY--330" value="SuperAdminRepositoryImpl" style="swimlane;whiteSpace=wrap;html=1;" vertex="1" parent="1">
          <mxGeometry x="700" y="1320" width="200" height="200" as="geometry" />
        </mxCell>
        <mxCell id="4GVUA1R4Ira9zIJg3EY--331" value="" style="shape=cylinder3;whiteSpace=wrap;html=1;boundedLbl=1;backgroundOutline=1;size=15;" vertex="1" parent="1">
          <mxGeometry x="280" y="1710" width="450" height="350" as="geometry" />
        </mxCell>
        <mxCell id="4GVUA1R4Ira9zIJg3EY--332" value="UserRepositoryImpl" style="swimlane;whiteSpace=wrap;html=1;startSize=23;" vertex="1" parent="1">
          <mxGeometry x="160" y="1320" width="200" height="200" as="geometry" />
        </mxCell>
        <mxCell id="4GVUA1R4Ira9zIJg3EY--333" value="" style="endArrow=classic;html=1;rounded=0;entryX=0.01;entryY=0.088;entryDx=0;entryDy=0;entryPerimeter=0;" edge="1" parent="1" target="4GVUA1R4Ira9zIJg3EY--331">
          <mxGeometry width="50" height="50" relative="1" as="geometry">
            <mxPoint x="260" y="1530" as="sourcePoint" />
            <mxPoint x="310" y="1600" as="targetPoint" />
          </mxGeometry>
        </mxCell>
        <mxCell id="4GVUA1R4Ira9zIJg3EY--334" value="" style="endArrow=classic;html=1;rounded=0;entryX=1;entryY=0;entryDx=0;entryDy=15;entryPerimeter=0;" edge="1" parent="1" target="4GVUA1R4Ira9zIJg3EY--331">
          <mxGeometry width="50" height="50" relative="1" as="geometry">
            <mxPoint x="800" y="1520" as="sourcePoint" />
            <mxPoint x="962" y="1726" as="targetPoint" />
          </mxGeometry>
        </mxCell>
        <mxCell id="4GVUA1R4Ira9zIJg3EY--335" value="" style="endArrow=classic;html=1;rounded=0;entryX=0.418;entryY=-0.01;entryDx=0;entryDy=0;entryPerimeter=0;exitX=0.5;exitY=1;exitDx=0;exitDy=0;" edge="1" parent="1" source="4GVUA1R4Ira9zIJg3EY--329" target="4GVUA1R4Ira9zIJg3EY--331">
          <mxGeometry width="50" height="50" relative="1" as="geometry">
            <mxPoint x="280" y="1550" as="sourcePoint" />
            <mxPoint x="442" y="1756" as="targetPoint" />
            <Array as="points" />
          </mxGeometry>
        </mxCell>
        <mxCell id="4GVUA1R4Ira9zIJg3EY--336" value="" style="endArrow=classic;html=1;rounded=0;" edge="1" parent="1">
          <mxGeometry width="50" height="50" relative="1" as="geometry">
            <mxPoint x="150" y="1010" as="sourcePoint" />
            <mxPoint x="160" y="670" as="targetPoint" />
            <Array as="points">
              <mxPoint x="80" y="1010" />
              <mxPoint x="80" y="670" />
            </Array>
          </mxGeometry>
        </mxCell>
        <mxCell id="4GVUA1R4Ira9zIJg3EY--337" value="" style="endArrow=classic;html=1;rounded=0;exitX=0;exitY=0.1;exitDx=0;exitDy=0;exitPerimeter=0;" edge="1" parent="1" source="4GVUA1R4Ira9zIJg3EY--315">
          <mxGeometry width="50" height="50" relative="1" as="geometry">
            <mxPoint x="420" y="1040" as="sourcePoint" />
            <mxPoint x="410" y="670" as="targetPoint" />
            <Array as="points">
              <mxPoint x="380" y="1010" />
              <mxPoint x="380" y="880" />
              <mxPoint x="380" y="670" />
            </Array>
          </mxGeometry>
        </mxCell>
        <mxCell id="4GVUA1R4Ira9zIJg3EY--338" value="" style="endArrow=classic;html=1;rounded=0;exitX=0;exitY=0.092;exitDx=0;exitDy=0;exitPerimeter=0;" edge="1" parent="1" source="4GVUA1R4Ira9zIJg3EY--321">
          <mxGeometry width="50" height="50" relative="1" as="geometry">
            <mxPoint x="690" y="1050" as="sourcePoint" />
            <mxPoint x="680" y="680" as="targetPoint" />
            <Array as="points">
              <mxPoint x="650" y="1008" />
              <mxPoint x="650" y="680" />
            </Array>
          </mxGeometry>
        </mxCell>
        <mxCell id="4GVUA1R4Ira9zIJg3EY--339" value="MenuStart (View)" style="swimlane;whiteSpace=wrap;html=1;" vertex="1" parent="1">
          <mxGeometry x="250" y="50" width="480" height="380" as="geometry" />
        </mxCell>
        <mxCell id="4GVUA1R4Ira9zIJg3EY--340" style="edgeStyle=orthogonalEdgeStyle;rounded=0;orthogonalLoop=1;jettySize=auto;html=1;exitX=0;exitY=0.25;exitDx=0;exitDy=0;" edge="1" parent="4GVUA1R4Ira9zIJg3EY--339" source="4GVUA1R4Ira9zIJg3EY--341">
          <mxGeometry relative="1" as="geometry">
            <mxPoint x="10" y="29.999999999999773" as="targetPoint" />
          </mxGeometry>
        </mxCell>
        <mxCell id="4GVUA1R4Ira9zIJg3EY--341" value="&#xa;&lt;span style=&quot;font-family: Helvetica; font-size: 12px; font-style: normal; font-variant-ligatures: normal; font-variant-caps: normal; font-weight: 700; letter-spacing: normal; orphans: 2; text-align: center; text-indent: 0px; text-transform: none; widows: 2; word-spacing: 0px; -webkit-text-stroke-width: 0px; white-space: normal; background-color: rgb(251, 251, 251); text-decoration-thickness: initial; text-decoration-style: initial; text-decoration-color: initial; float: none; display: inline !important;&quot;&gt;UserService&lt;/span&gt;&#xa;&#xa;" style="text;html=1;align=center;verticalAlign=middle;whiteSpace=wrap;rounded=0;fontColor=#3333FF;" vertex="1" parent="4GVUA1R4Ira9zIJg3EY--339">
          <mxGeometry x="20" y="40" width="60" height="30" as="geometry" />
        </mxCell>
        <mxCell id="4GVUA1R4Ira9zIJg3EY--342" value="&lt;span style=&quot;font-weight: 700;&quot;&gt;Admin&lt;/span&gt;&lt;span style=&quot;font-weight: 700; background-color: initial;&quot;&gt;Servoce&lt;/span&gt;" style="text;html=1;align=center;verticalAlign=middle;whiteSpace=wrap;rounded=0;fontColor=#0f56e6;" vertex="1" parent="4GVUA1R4Ira9zIJg3EY--339">
          <mxGeometry x="20" y="60" width="60" height="30" as="geometry" />
        </mxCell>
        <mxCell id="4GVUA1R4Ira9zIJg3EY--343" value="&#xa;&lt;span style=&quot;font-family: Helvetica; font-size: 12px; font-style: normal; font-variant-ligatures: normal; font-variant-caps: normal; font-weight: 700; letter-spacing: normal; orphans: 2; text-align: center; text-indent: 0px; text-transform: none; widows: 2; word-spacing: 0px; -webkit-text-stroke-width: 0px; white-space: normal; background-color: rgb(251, 251, 251); text-decoration-thickness: initial; text-decoration-style: initial; text-decoration-color: initial; float: none; display: inline !important;&quot;&gt;SuperAdminService&lt;/span&gt;&#xa;&#xa;" style="text;html=1;align=center;verticalAlign=middle;whiteSpace=wrap;rounded=0;fontColor=#0000FF;" vertex="1" parent="4GVUA1R4Ira9zIJg3EY--339">
          <mxGeometry x="40" y="100" width="60" height="30" as="geometry" />
        </mxCell>
        <mxCell id="4GVUA1R4Ira9zIJg3EY--344" value="start" style="text;html=1;align=center;verticalAlign=middle;whiteSpace=wrap;rounded=0;" vertex="1" parent="4GVUA1R4Ira9zIJg3EY--339">
          <mxGeometry y="140" width="100" height="40" as="geometry" />
        </mxCell>
        <mxCell id="4GVUA1R4Ira9zIJg3EY--345" value="LogIn" style="text;html=1;align=center;verticalAlign=middle;whiteSpace=wrap;rounded=0;" vertex="1" parent="4GVUA1R4Ira9zIJg3EY--339">
          <mxGeometry x="20" y="220" width="60" height="30" as="geometry" />
        </mxCell>
        <mxCell id="4GVUA1R4Ira9zIJg3EY--346" value="Registration" style="text;html=1;align=center;verticalAlign=middle;whiteSpace=wrap;rounded=0;" vertex="1" parent="4GVUA1R4Ira9zIJg3EY--339">
          <mxGeometry x="30" y="250" width="60" height="30" as="geometry" />
        </mxCell>
        <mxCell id="4GVUA1R4Ira9zIJg3EY--347" value="Users" style="swimlane;fontStyle=0;childLayout=stackLayout;horizontal=1;startSize=30;horizontalStack=0;resizeParent=1;resizeParentMax=0;resizeLast=0;collapsible=1;marginBottom=0;whiteSpace=wrap;html=1;" vertex="1" parent="1">
          <mxGeometry x="380" y="1770" width="140" height="120" as="geometry" />
        </mxCell>
        <mxCell id="4GVUA1R4Ira9zIJg3EY--348" value="Item 1" style="text;strokeColor=none;fillColor=none;align=left;verticalAlign=middle;spacingLeft=4;spacingRight=4;overflow=hidden;points=[[0,0.5],[1,0.5]];portConstraint=eastwest;rotatable=0;whiteSpace=wrap;html=1;" vertex="1" parent="4GVUA1R4Ira9zIJg3EY--347">
          <mxGeometry y="30" width="140" height="30" as="geometry" />
        </mxCell>
        <mxCell id="4GVUA1R4Ira9zIJg3EY--349" value="Item 2" style="text;strokeColor=none;fillColor=none;align=left;verticalAlign=middle;spacingLeft=4;spacingRight=4;overflow=hidden;points=[[0,0.5],[1,0.5]];portConstraint=eastwest;rotatable=0;whiteSpace=wrap;html=1;" vertex="1" parent="4GVUA1R4Ira9zIJg3EY--347">
          <mxGeometry y="60" width="140" height="30" as="geometry" />
        </mxCell>
        <mxCell id="4GVUA1R4Ira9zIJg3EY--350" value="Item 3" style="text;strokeColor=none;fillColor=none;align=left;verticalAlign=middle;spacingLeft=4;spacingRight=4;overflow=hidden;points=[[0,0.5],[1,0.5]];portConstraint=eastwest;rotatable=0;whiteSpace=wrap;html=1;" vertex="1" parent="4GVUA1R4Ira9zIJg3EY--347">
          <mxGeometry y="90" width="140" height="30" as="geometry" />
        </mxCell>
        <mxCell id="4GVUA1R4Ira9zIJg3EY--351" value="DataBase&lt;div&gt;&lt;br&gt;&lt;/div&gt;" style="text;html=1;align=center;verticalAlign=middle;whiteSpace=wrap;rounded=0;" vertex="1" parent="1">
          <mxGeometry x="490" y="1720" width="120" height="30" as="geometry" />
        </mxCell>
        <mxCell id="4GVUA1R4Ira9zIJg3EY--352" value="Admins" style="swimlane;fontStyle=0;childLayout=stackLayout;horizontal=1;startSize=30;horizontalStack=0;resizeParent=1;resizeParentMax=0;resizeLast=0;collapsible=1;marginBottom=0;whiteSpace=wrap;html=1;" vertex="1" parent="1">
          <mxGeometry x="560" y="1770" width="140" height="120" as="geometry" />
        </mxCell>
        <mxCell id="4GVUA1R4Ira9zIJg3EY--353" value="Item 1" style="text;strokeColor=none;fillColor=none;align=left;verticalAlign=middle;spacingLeft=4;spacingRight=4;overflow=hidden;points=[[0,0.5],[1,0.5]];portConstraint=eastwest;rotatable=0;whiteSpace=wrap;html=1;" vertex="1" parent="4GVUA1R4Ira9zIJg3EY--352">
          <mxGeometry y="30" width="140" height="30" as="geometry" />
        </mxCell>
        <mxCell id="4GVUA1R4Ira9zIJg3EY--354" value="Item 2" style="text;strokeColor=none;fillColor=none;align=left;verticalAlign=middle;spacingLeft=4;spacingRight=4;overflow=hidden;points=[[0,0.5],[1,0.5]];portConstraint=eastwest;rotatable=0;whiteSpace=wrap;html=1;" vertex="1" parent="4GVUA1R4Ira9zIJg3EY--352">
          <mxGeometry y="60" width="140" height="30" as="geometry" />
        </mxCell>
        <mxCell id="4GVUA1R4Ira9zIJg3EY--355" value="Item 3" style="text;strokeColor=none;fillColor=none;align=left;verticalAlign=middle;spacingLeft=4;spacingRight=4;overflow=hidden;points=[[0,0.5],[1,0.5]];portConstraint=eastwest;rotatable=0;whiteSpace=wrap;html=1;" vertex="1" parent="4GVUA1R4Ira9zIJg3EY--352">
          <mxGeometry y="90" width="140" height="30" as="geometry" />
        </mxCell>
        <mxCell id="4GVUA1R4Ira9zIJg3EY--356" value="superAdmins" style="swimlane;fontStyle=0;childLayout=stackLayout;horizontal=1;startSize=30;horizontalStack=0;resizeParent=1;resizeParentMax=0;resizeLast=0;collapsible=1;marginBottom=0;whiteSpace=wrap;html=1;" vertex="1" parent="1">
          <mxGeometry x="380" y="1920" width="140" height="120" as="geometry" />
        </mxCell>
        <mxCell id="4GVUA1R4Ira9zIJg3EY--357" value="Item 1" style="text;strokeColor=none;fillColor=none;align=left;verticalAlign=middle;spacingLeft=4;spacingRight=4;overflow=hidden;points=[[0,0.5],[1,0.5]];portConstraint=eastwest;rotatable=0;whiteSpace=wrap;html=1;" vertex="1" parent="4GVUA1R4Ira9zIJg3EY--356">
          <mxGeometry y="30" width="140" height="30" as="geometry" />
        </mxCell>
        <mxCell id="4GVUA1R4Ira9zIJg3EY--358" value="Item 2" style="text;strokeColor=none;fillColor=none;align=left;verticalAlign=middle;spacingLeft=4;spacingRight=4;overflow=hidden;points=[[0,0.5],[1,0.5]];portConstraint=eastwest;rotatable=0;whiteSpace=wrap;html=1;" vertex="1" parent="4GVUA1R4Ira9zIJg3EY--356">
          <mxGeometry y="60" width="140" height="30" as="geometry" />
        </mxCell>
        <mxCell id="4GVUA1R4Ira9zIJg3EY--359" value="Item 3" style="text;strokeColor=none;fillColor=none;align=left;verticalAlign=middle;spacingLeft=4;spacingRight=4;overflow=hidden;points=[[0,0.5],[1,0.5]];portConstraint=eastwest;rotatable=0;whiteSpace=wrap;html=1;" vertex="1" parent="4GVUA1R4Ira9zIJg3EY--356">
          <mxGeometry y="90" width="140" height="30" as="geometry" />
        </mxCell>
        <mxCell id="4GVUA1R4Ira9zIJg3EY--360" value="account" style="swimlane;whiteSpace=wrap;html=1;" vertex="1" parent="1">
          <mxGeometry x="450" y="2180" width="151" height="140" as="geometry" />
        </mxCell>
        <mxCell id="4GVUA1R4Ira9zIJg3EY--361" value="String login" style="text;html=1;align=center;verticalAlign=middle;whiteSpace=wrap;rounded=0;fontColor=#3333FF;" vertex="1" parent="4GVUA1R4Ira9zIJg3EY--360">
          <mxGeometry y="50" width="119" height="30" as="geometry" />
        </mxCell>
        <mxCell id="4GVUA1R4Ira9zIJg3EY--362" value="String password" style="text;html=1;align=center;verticalAlign=middle;whiteSpace=wrap;rounded=0;fontColor=#0000FF;" vertex="1" parent="4GVUA1R4Ira9zIJg3EY--360">
          <mxGeometry x="19" y="80" width="100" height="30" as="geometry" />
        </mxCell>
        <mxCell id="4GVUA1R4Ira9zIJg3EY--363" value="long id" style="text;html=1;align=center;verticalAlign=middle;whiteSpace=wrap;rounded=0;fontColor=#0000FF;" vertex="1" parent="4GVUA1R4Ira9zIJg3EY--360">
          <mxGeometry x="19" y="20" width="60" height="30" as="geometry" />
        </mxCell>
        <mxCell id="4GVUA1R4Ira9zIJg3EY--364" value="" style="endArrow=classic;html=1;rounded=0;" edge="1" parent="1">
          <mxGeometry width="50" height="50" relative="1" as="geometry">
            <mxPoint x="500" y="2320" as="sourcePoint" />
            <mxPoint x="390" y="2420" as="targetPoint" />
          </mxGeometry>
        </mxCell>
        <mxCell id="4GVUA1R4Ira9zIJg3EY--365" value="" style="endArrow=classic;html=1;rounded=0;" edge="1" parent="1">
          <mxGeometry width="50" height="50" relative="1" as="geometry">
            <mxPoint x="540" y="2320" as="sourcePoint" />
            <mxPoint x="630" y="2420" as="targetPoint" />
          </mxGeometry>
        </mxCell>
        <mxCell id="4GVUA1R4Ira9zIJg3EY--366" value="user account" style="swimlane;whiteSpace=wrap;html=1;" vertex="1" parent="1">
          <mxGeometry x="290" y="2420" width="170" height="170" as="geometry" />
        </mxCell>
        <mxCell id="4GVUA1R4Ira9zIJg3EY--367" value="admin account" style="swimlane;whiteSpace=wrap;html=1;" vertex="1" parent="1">
          <mxGeometry x="590" y="2420" width="170" height="170" as="geometry" />
        </mxCell>
        <mxCell id="4GVUA1R4Ira9zIJg3EY--368" value="" style="endArrow=classic;html=1;rounded=0;" edge="1" parent="1">
          <mxGeometry width="50" height="50" relative="1" as="geometry">
            <mxPoint x="170" y="620" as="sourcePoint" />
            <mxPoint x="250" y="90" as="targetPoint" />
            <Array as="points">
              <mxPoint x="140" y="620" />
              <mxPoint x="140" y="90" />
            </Array>
          </mxGeometry>
        </mxCell>
        <mxCell id="4GVUA1R4Ira9zIJg3EY--369" value="" style="endArrow=classic;html=1;rounded=0;exitX=0.434;exitY=-0.002;exitDx=0;exitDy=0;exitPerimeter=0;" edge="1" parent="1" source="4GVUA1R4Ira9zIJg3EY--301">
          <mxGeometry width="50" height="50" relative="1" as="geometry">
            <mxPoint x="750" y="620" as="sourcePoint" />
            <mxPoint x="390" y="160" as="targetPoint" />
            <Array as="points">
              <mxPoint x="820" y="450" />
              <mxPoint x="820" y="160" />
            </Array>
          </mxGeometry>
        </mxCell>
        <mxCell id="4GVUA1R4Ira9zIJg3EY--370" value="" style="endArrow=classic;html=1;rounded=0;exitX=0.5;exitY=0;exitDx=0;exitDy=0;" edge="1" parent="1" source="4GVUA1R4Ira9zIJg3EY--294">
          <mxGeometry width="50" height="50" relative="1" as="geometry">
            <mxPoint x="180" y="630" as="sourcePoint" />
            <mxPoint x="240" y="130" as="targetPoint" />
            <Array as="points">
              <mxPoint x="520" y="560" />
              <mxPoint x="480" y="560" />
              <mxPoint x="180" y="560" />
              <mxPoint x="180" y="380" />
              <mxPoint x="180" y="130" />
            </Array>
          </mxGeometry>
        </mxCell>
      </root>
    </mxGraphModel>
  </diagram>
</mxfile>
